<svg width="30" height="30" viewBox="0 0 30 30" fill="none" xmlns="http://www.w3.org/2000/svg">
<path d="M10.1725 10.4875V15.4875M7.6725 12.9875H12.6725M20.0388 4.85876H9.9625C8.23218 4.8591 6.57284 5.5467 5.34944 6.77033C4.12603 7.99397 3.43875 9.65344 3.43875 11.3838V21.715C3.43875 24.3088 6.605 25.5713 8.39125 23.6913L12.1112 19.7738H17.8912L21.485 24.0988C23.2025 26.1663 26.5637 24.9513 26.5637 22.265V11.3825C26.5634 9.65241 25.876 7.99326 24.6526 6.76989C23.4293 5.54652 21.7689 4.8591 20.0388 4.85876Z" stroke="white" stroke-width="1.5" stroke-linecap="round" stroke-linejoin="round"/>
<path d="M18.3275 12.9875C19.0179 12.9875 19.5775 12.4278 19.5775 11.7375C19.5775 11.0471 19.0179 10.4875 18.3275 10.4875C17.6371 10.4875 17.0775 11.0471 17.0775 11.7375C17.0775 12.4278 17.6371 12.9875 18.3275 12.9875Z" fill="white"/>
<path d="M21.0775 15.7375C21.7679 15.7375 22.3275 15.1778 22.3275 14.4875C22.3275 13.7971 21.7679 13.2375 21.0775 13.2375C20.3871 13.2375 19.8275 13.7971 19.8275 14.4875C19.8275 15.1778 20.3871 15.7375 21.0775 15.7375Z" fill="white"/>
</svg>
