<svg width="30" height="30" viewBox="0 0 30 30" fill="none" xmlns="http://www.w3.org/2000/svg">
<path fill-rule="evenodd" clip-rule="evenodd" d="M15 15C15.9946 15 16.9484 14.6049 17.6517 13.9017C18.3549 13.1984 18.75 12.2446 18.75 11.25C18.75 10.2554 18.3549 9.30161 17.6517 8.59835C16.9484 7.89509 15.9946 7.5 15 7.5C14.0054 7.5 13.0516 7.89509 12.3483 8.59835C11.6451 9.30161 11.25 10.2554 11.25 11.25C11.25 12.2446 11.6451 13.1984 12.3483 13.9017C13.0516 14.6049 14.0054 15 15 15ZM15 10.5C15.1989 10.5 15.3897 10.579 15.5303 10.7197C15.671 10.8603 15.75 11.0511 15.75 11.25C15.75 11.4489 15.671 11.6397 15.5303 11.7803C15.3897 11.921 15.1989 12 15 12C14.8011 12 14.6103 11.921 14.4697 11.7803C14.329 11.6397 14.25 11.4489 14.25 11.25C14.25 11.0511 14.329 10.8603 14.4697 10.7197C14.6103 10.579 14.8011 10.5 15 10.5Z" fill="white"/>
<path fill-rule="evenodd" clip-rule="evenodd" d="M7.5 10.929C7.5 15.2985 11.7075 22.5 15 22.5C18.2925 22.5 22.5 15.2985 22.5 10.929C22.5 6.57 19.1655 3 15 3C10.8345 3 7.5 6.5715 7.5 10.929ZM19.5 10.929C19.5 13.86 16.2045 19.5 15 19.5C13.7955 19.5 10.5 13.86 10.5 10.929C10.5 8.184 12.54 6 15 6C17.46 6 19.5 8.184 19.5 10.929Z" fill="white"/>
<path d="M20.595 15C20.1972 15 19.8156 14.842 19.5343 14.5607C19.253 14.2794 19.095 13.8978 19.095 13.5C19.095 13.1022 19.253 12.7206 19.5343 12.4393C19.8156 12.158 20.1972 12 20.595 12C21.5784 12.0002 22.5347 12.3225 23.3175 12.9176C24.1004 13.5128 24.6668 14.348 24.93 15.2955L27.015 22.7955C27.2007 23.4641 27.2293 24.1666 27.0986 24.8481C26.9678 25.5295 26.6812 26.1716 26.2611 26.7239C25.8411 27.2763 25.299 27.724 24.6773 28.0321C24.0555 28.3402 23.3709 28.5003 22.677 28.5H7.32C6.62634 28.4999 5.94209 28.3394 5.32071 28.0311C4.69933 27.7228 4.15764 27.275 3.73794 26.7227C3.31825 26.1704 3.03191 25.5286 2.9013 24.8473C2.77068 24.1661 2.79933 23.4639 2.985 22.7955L5.0685 15.2955C5.33179 14.3477 5.89838 13.5123 6.68155 12.9172C7.46473 12.322 8.42134 11.9998 9.405 12C9.80282 12 10.1844 12.158 10.4657 12.4393C10.747 12.7206 10.905 13.1022 10.905 13.5C10.905 13.8978 10.747 14.2794 10.4657 14.5607C10.1844 14.842 9.80282 15 9.405 15C9.07735 15.0001 8.75876 15.1076 8.49791 15.3058C8.23706 15.5041 8.04831 15.7823 7.9605 16.098L5.8755 23.598C5.81346 23.821 5.80388 24.0554 5.84751 24.2827C5.89114 24.51 5.98679 24.7242 6.12698 24.9084C6.26717 25.0926 6.4481 25.2419 6.65559 25.3445C6.86308 25.4472 7.09151 25.5004 7.323 25.5H22.68C22.9112 25.4999 23.1393 25.4463 23.3464 25.3435C23.5535 25.2407 23.7341 25.0914 23.8739 24.9072C24.0138 24.7231 24.1092 24.5091 24.1526 24.282C24.1961 24.0549 24.1865 23.8208 24.1245 23.598L22.041 16.098C21.9531 15.7821 21.7641 15.5037 21.503 15.3054C21.2418 15.1071 20.9229 14.9998 20.595 15Z" fill="white"/>
</svg>
