<svg width="30" height="30" viewBox="0 0 30 30" fill="none" xmlns="http://www.w3.org/2000/svg">
<path d="M10.6375 2.5H19.3625C19.6525 2.5 19.875 2.5 20.07 2.51875C21.455 2.655 22.5887 3.4875 23.07 4.60875H6.93C7.41125 3.4875 8.545 2.655 9.93 2.51875C10.1225 2.5 10.345 2.5 10.6375 2.5ZM7.8875 5.90375C6.15 5.90375 4.725 6.95375 4.25 8.34625L4.22 8.43375C4.7175 8.28375 5.23625 8.18375 5.76 8.1175C7.11 7.94375 8.8175 7.94375 10.8 7.94375H19.415C21.3975 7.94375 23.1037 7.94375 24.455 8.1175C24.98 8.185 25.4975 8.2825 25.995 8.43375L25.9663 8.34625C25.4913 6.95375 24.0662 5.90375 22.3275 5.90375H7.8875Z" fill="white"/>
<path fill-rule="evenodd" clip-rule="evenodd" d="M10.84 9.42749H19.16C23.3775 9.42749 25.4875 9.42749 26.6725 10.6612C27.8575 11.895 27.5775 13.8 27.02 17.6112L26.4925 21.2262C26.055 24.215 25.8363 25.71 24.715 26.605C23.5938 27.5 21.94 27.5 18.6312 27.5H11.3687C8.06125 27.5 6.40625 27.5 5.285 26.605C4.16375 25.71 3.945 24.215 3.5075 21.2262L2.98 17.6125C2.42125 13.8 2.1425 11.895 3.3275 10.6612C4.5125 9.42749 6.6225 9.42749 10.84 9.42749ZM10 22.5C10 21.9825 10.4662 21.5625 11.0412 21.5625H18.9587C19.5337 21.5625 20 21.9825 20 22.5C20 23.0175 19.5337 23.4375 18.9587 23.4375H11.0412C10.4662 23.4375 10 23.0175 10 22.5Z" fill="white"/>
</svg>
