<svg width="30" height="31" viewBox="0 0 30 31" fill="none" xmlns="http://www.w3.org/2000/svg">
<path d="M14.0625 8.5C14.3111 8.5 14.5496 8.59877 14.7254 8.77459C14.9012 8.9504 15 9.18886 15 9.4375V14.125H19.6875C19.9361 14.125 20.1746 14.2238 20.3504 14.3996C20.5262 14.5754 20.625 14.8139 20.625 15.0625C20.625 15.3111 20.5262 15.5496 20.3504 15.7254C20.1746 15.9012 19.9361 16 19.6875 16H15V20.6875C15 20.9361 14.9012 21.1746 14.7254 21.3504C14.5496 21.5262 14.3111 21.625 14.0625 21.625C13.8139 21.625 13.5754 21.5262 13.3996 21.3504C13.2238 21.1746 13.125 20.9361 13.125 20.6875V16H8.4375C8.18886 16 7.9504 15.9012 7.77459 15.7254C7.59877 15.5496 7.5 15.3111 7.5 15.0625C7.5 14.8139 7.59877 14.5754 7.77459 14.3996C7.9504 14.2238 8.18886 14.125 8.4375 14.125H13.125V9.4375C13.125 9.18886 13.2238 8.9504 13.3996 8.77459C13.5754 8.59877 13.8139 8.5 14.0625 8.5Z" fill="white"/>
<path fill-rule="evenodd" clip-rule="evenodd" d="M0 13C0 8.80002 0 6.70002 0.8175 5.08752C1.54002 3.67669 2.68792 2.52879 4.09875 1.80627C5.70375 0.98877 7.81125 0.98877 12.0112 0.98877H16.1362C20.3362 0.98877 22.4362 0.98877 24.0487 1.80627C25.4606 2.52439 26.5987 3.67189 27.33 5.08752C28.1475 6.69252 28.1475 8.80002 28.1475 13V17.125C28.1475 21.325 28.1475 23.425 27.33 25.0375C26.6075 26.4483 25.4596 27.5962 24.0487 28.3188C22.4437 29.1363 20.3362 29.1363 16.1362 29.1363H12.0112C7.81125 29.1363 5.71125 29.1363 4.09875 28.3188C2.68792 27.5962 1.54002 26.4483 0.8175 25.0375C0 23.4325 0 21.325 0 17.125V13ZM12 2.87502H16.125C18.2625 2.87502 19.7437 2.87502 20.9062 2.97064C22.0406 3.06439 22.6931 3.23689 23.1937 3.48814C24.2496 4.02934 25.1088 4.88853 25.65 5.94439C25.9012 6.43752 26.0737 7.09002 26.1675 8.23189C26.2612 9.38877 26.2631 10.8756 26.2631 13.0131V17.1381C26.2631 19.2756 26.2631 20.7569 26.1675 21.9194C26.0737 23.0538 25.9012 23.7063 25.65 24.2069C25.1109 25.2643 24.2511 26.124 23.1937 26.6631C22.7006 26.9144 22.0481 27.0869 20.9062 27.1806C19.7494 27.2744 18.2625 27.2763 16.125 27.2763H12C9.8625 27.2763 8.38125 27.2763 7.21875 27.1825C6.08437 27.0888 5.43187 26.9144 4.93125 26.6631C3.87387 26.124 3.01411 25.2643 2.475 24.2069C2.22375 23.7138 2.05125 23.0631 1.9575 21.9194C1.86375 20.7625 1.86187 19.2756 1.86187 17.1381V13.0131C1.86187 10.8756 1.86187 9.39439 1.9575 8.23189C2.05125 7.09752 2.22375 6.44502 2.475 5.94439C3.0162 4.88853 3.87539 4.02934 4.93125 3.48814C5.42438 3.23689 6.07687 3.06439 7.21875 2.97064C8.37562 2.87689 9.8625 2.87502 12 2.87502Z" fill="white"/>
</svg>
